<svg xmlns="http://www.w3.org/2000/svg" viewBox="0 0 512 512" role="img" aria-labelledby="title desc"><title id="title">Icône Qui ment ?</title><desc id="desc">Empreinte digitale turquoise sur un fond bleu nuit.</desc><defs><linearGradient id="bg" x1="0" y1="0" x2="1" y2="1"><stop offset="0" stop-color="#06141b"/><stop offset="1" stop-color="#0a2730"/></linearGradient><linearGradient id="finger" x1="0.2" y1="0" x2="0.85" y2="1"><stop offset="0" stop-color="#76f4df"/><stop offset="0.5" stop-color="#28c9be"/><stop offset="1" stop-color="#087b86"/></linearGradient><filter id="glow" x="-40%" y="-40%" width="180%" height="180%"><feGaussianBlur stdDeviation="8" result="blur"/><feMerge><feMergeNode in="blur"/><feMergeNode in="SourceGraphic"/></feMerge></filter></defs><rect width="512" height="512" rx="104" fill="url(#bg)"/><rect x="12" y="12" width="488" height="488" rx="94" fill="none" stroke="#31515b" stroke-width="4"/><circle cx="256" cy="250" r="174" fill="#0b3138" opacity=".45"/><g fill="none" stroke="url(#finger)" stroke-linecap="round" filter="url(#glow)"><path d="M151 205c20-65 72-104 135-104 82 0 145 63 145 148 0 76-21 151-60 211" stroke-width="25"/><path d="M113 258c0-100 75-181 174-181 103 0 183 78 183 179 0 87-24 169-69 238" stroke-width="18" opacity=".8"/><path d="M184 241c8-50 48-83 100-83 60 0 104 45 104 105 0 69-18 130-55 184" stroke-width="25"/><path d="M230 263c0-31 23-55 54-55 33 0 58 25 58 59 0 59-14 108-43 153" stroke-width="25"/><path d="M139 300c3 66-8 119-38 166" stroke-width="20" opacity=".85"/><path d="M178 300c2 82-15 148-53 198" stroke-width="24"/><path d="M224 308c0 77-13 133-42 177" stroke-width="23"/><path d="M270 310c0 62-10 110-31 151" stroke-width="22"/></g><circle cx="404" cy="110" r="49" fill="#0e343c" stroke="#4adfd0" stroke-width="4"/><path d="M386 96c4-18 18-29 37-29 23 0 40 15 40 36 0 16-8 24-20 33-9 7-13 12-13 24h-21c0-19 7-29 20-39 8-6 12-11 12-18 0-9-7-15-18-15-12 0-19 7-19 18z" fill="#69ead9"/><circle cx="419" cy="181" r="12" fill="#69ead9"/></svg>